<svg xmlns="http://www.w3.org/2000/svg" xmlns:xlink="http://www.w3.org/1999/xlink" contentStyleType="text/css" data-diagram-type="CLASS" height="688px" preserveAspectRatio="none" style="width:3681px;height:688px;background:#FFFFFF;" version="1.1" viewBox="0 0 3681 688" width="3681px" zoomAndPan="magnify"><defs/><g><!--cluster backend_irrbb--><g class="cluster" data-entity="backend_irrbb" data-source-line="3" data-uid="ent0002" id="cluster_backend_irrbb"><path d="M1937.5,6 L2050.7119,6 A3.75,3.75 0 0 1 2053.2119,8.5 L2060.2119,28.2969 L3671.5,28.2969 A2.5,2.5 0 0 1 3674,30.7969 L3674,185.5 A2.5,2.5 0 0 1 3671.5,188 L1937.5,188 A2.5,2.5 0 0 1 1935,185.5 L1935,8.5 A2.5,2.5 0 0 1 1937.5,6" fill="none" style="stroke:#000000;stroke-width:1.5;"/><line style="stroke:#000000;stroke-width:1.5;" x1="1935" x2="2060.2119" y1="28.2969" y2="28.2969"/><text fill="#000000" font-family="sans-serif" font-size="14" font-weight="bold" lengthAdjust="spacing" textLength="112.2119" x="1939" y="20.9951">backend_irrbb</text></g><!--cluster manage--><g class="cluster" data-entity="manage" data-source-line="36" data-uid="ent0014" id="cluster_manage"><rect fill="none" height="99" rx="2.5" ry="2.5" style="stroke:#000000;stroke-width:1.5;" width="82" x="1967" y="57"/><text fill="#000000" font-family="sans-serif" font-size="14" font-weight="bold" lengthAdjust="spacing" textLength="62.9658" x="1976.5171" y="71.9951">manage</text></g><!--cluster requirements--><g class="cluster" data-entity="requirements" data-source-line="37" data-uid="ent0016" id="cluster_requirements"><rect fill="none" height="99" rx="2.5" ry="2.5" style="stroke:#000000;stroke-width:1.5;" width="122" x="2073" y="57"/><text fill="#000000" font-family="sans-serif" font-size="14" font-weight="bold" lengthAdjust="spacing" textLength="106.6611" x="2080.6694" y="71.9951">requirements</text></g><!--cluster frontend_IRRBB--><g class="cluster" data-entity="frontend_IRRBB" data-source-line="42" data-uid="ent0019" id="cluster_frontend_IRRBB"><path d="M8.5,298 L133.3672,298 A3.75,3.75 0 0 1 135.8672,300.5 L142.8672,320.2969 L3671.5,320.2969 A2.5,2.5 0 0 1 3674,322.7969 L3674,678.5 A2.5,2.5 0 0 1 3671.5,681 L8.5,681 A2.5,2.5 0 0 1 6,678.5 L6,300.5 A2.5,2.5 0 0 1 8.5,298" fill="none" style="stroke:#000000;stroke-width:1.5;"/><line style="stroke:#000000;stroke-width:1.5;" x1="6" x2="142.8672" y1="320.2969" y2="320.2969"/><text fill="#000000" font-family="sans-serif" font-size="14" font-weight="bold" lengthAdjust="spacing" textLength="123.8672" x="10" y="312.9951">frontend_IRRBB</text></g><!--cluster src--><g class="cluster" data-entity="src" data-source-line="45" data-uid="ent0021" id="cluster_src"><path d="M40.5,349 L65.0361,349 A3.75,3.75 0 0 1 67.5361,351.5 L74.5361,371.2969 L3631.5,371.2969 A2.5,2.5 0 0 1 3634,373.7969 L3634,646.5 A2.5,2.5 0 0 1 3631.5,649 L40.5,649 A2.5,2.5 0 0 1 38,646.5 L38,351.5 A2.5,2.5 0 0 1 40.5,349" fill="none" style="stroke:#000000;stroke-width:1.5;"/><line style="stroke:#000000;stroke-width:1.5;" x1="38" x2="74.5361" y1="371.2969" y2="371.2969"/><text fill="#000000" font-family="sans-serif" font-size="14" font-weight="bold" lengthAdjust="spacing" textLength="23.5361" x="42" y="363.9951">src</text></g><!--cluster api--><g class="cluster" data-entity="api" data-source-line="47" data-uid="ent0022" id="cluster_api"><path d="M64.5,435 L89.7676,435 A3.75,3.75 0 0 1 92.2676,437.5 L99.2676,457.2969 L383.5,457.2969 A2.5,2.5 0 0 1 386,459.7969 L386,598.5 A2.5,2.5 0 0 1 383.5,601 L64.5,601 A2.5,2.5 0 0 1 62,598.5 L62,437.5 A2.5,2.5 0 0 1 64.5,435" fill="none" style="stroke:#000000;stroke-width:1.5;"/><line style="stroke:#000000;stroke-width:1.5;" x1="62" x2="99.2676" y1="457.2969" y2="457.2969"/><text fill="#000000" font-family="sans-serif" font-size="14" font-weight="bold" lengthAdjust="spacing" textLength="24.2676" x="66" y="449.9951">api</text></g><!--cluster auth--><g class="cluster" data-entity="auth" data-source-line="48" data-uid="ent0024" id="cluster_auth"><rect fill="none" height="99" rx="2.5" ry="2.5" style="stroke:#000000;stroke-width:1.5;" width="76" x="86" y="478"/><text fill="#000000" font-family="sans-serif" font-size="14" font-weight="bold" lengthAdjust="spacing" textLength="36.0732" x="105.9634" y="492.9951">auth</text></g><!--cluster axios--><g class="cluster" data-entity="axios" data-source-line="49" data-uid="ent0026" id="cluster_axios"><rect fill="none" height="99" rx="2.5" ry="2.5" style="stroke:#000000;stroke-width:1.5;" width="76" x="186" y="478"/><text fill="#000000" font-family="sans-serif" font-size="14" font-weight="bold" lengthAdjust="spacing" textLength="41.2275" x="203.3862" y="492.9951">axios</text></g><!--cluster users--><g class="cluster" data-entity="users" data-source-line="50" data-uid="ent0028" id="cluster_users"><rect fill="none" height="99" rx="2.5" ry="2.5" style="stroke:#000000;stroke-width:1.5;" width="76" x="286" y="478"/><text fill="#000000" font-family="sans-serif" font-size="14" font-weight="bold" lengthAdjust="spacing" textLength="43.0322" x="302.4839" y="492.9951">users</text></g><!--cluster assets--><g class="cluster" data-entity="assets" data-source-line="53" data-uid="ent0029" id="cluster_assets"><path d="M412.5,435 L464.1338,435 A3.75,3.75 0 0 1 466.6338,437.5 L473.6338,457.2969 L541.5,457.2969 A2.5,2.5 0 0 1 544,459.7969 L544,598.5 A2.5,2.5 0 0 1 541.5,601 L412.5,601 A2.5,2.5 0 0 1 410,598.5 L410,437.5 A2.5,2.5 0 0 1 412.5,435" fill="none" style="stroke:#000000;stroke-width:1.5;"/><line style="stroke:#000000;stroke-width:1.5;" x1="410" x2="473.6338" y1="457.2969" y2="457.2969"/><text fill="#000000" font-family="sans-serif" font-size="14" font-weight="bold" lengthAdjust="spacing" textLength="50.6338" x="414" y="449.9951">assets</text></g><!--cluster tailwind--><g class="cluster" data-entity="tailwind" data-source-line="54" data-uid="ent0031" id="cluster_tailwind"><rect fill="none" height="99" rx="2.5" ry="2.5" style="stroke:#000000;stroke-width:1.5;" width="86" x="434" y="478"/><text fill="#000000" font-family="sans-serif" font-size="14" font-weight="bold" lengthAdjust="spacing" textLength="63.458" x="445.271" y="492.9951">tailwind</text></g><!--cluster components--><g class="cluster" data-entity="components" data-source-line="57" data-uid="ent0032" id="cluster_components"><path d="M570.5,392 L668.0986,392 A3.75,3.75 0 0 1 670.5986,394.5 L677.5986,414.2969 L3293.5,414.2969 A2.5,2.5 0 0 1 3296,416.7969 L3296,622.5 A2.5,2.5 0 0 1 3293.5,625 L570.5,625 A2.5,2.5 0 0 1 568,622.5 L568,394.5 A2.5,2.5 0 0 1 570.5,392" fill="none" style="stroke:#000000;stroke-width:1.5;"/><line style="stroke:#000000;stroke-width:1.5;" x1="568" x2="677.5986" y1="414.2969" y2="414.2969"/><text fill="#000000" font-family="sans-serif" font-size="14" font-weight="bold" lengthAdjust="spacing" textLength="96.5986" x="572" y="406.9951">components</text></g><!--cluster admin--><g class="cluster" data-entity="admin" data-source-line="59" data-uid="ent0033" id="cluster_admin"><path d="M594.5,435 L644.3223,435 A3.75,3.75 0 0 1 646.8223,437.5 L653.8223,457.2969 L906.5,457.2969 A2.5,2.5 0 0 1 909,459.7969 L909,598.5 A2.5,2.5 0 0 1 906.5,601 L594.5,601 A2.5,2.5 0 0 1 592,598.5 L592,437.5 A2.5,2.5 0 0 1 594.5,435" fill="none" style="stroke:#000000;stroke-width:1.5;"/><line style="stroke:#000000;stroke-width:1.5;" x1="592" x2="653.8223" y1="457.2969" y2="457.2969"/><text fill="#000000" font-family="sans-serif" font-size="14" font-weight="bold" lengthAdjust="spacing" textLength="48.8223" x="596" y="449.9951">admin</text></g><!--cluster AdminNavBar--><g class="cluster" data-entity="AdminNavBar" data-source-line="60" data-uid="ent0035" id="cluster_AdminNavBar"><rect fill="none" height="99" rx="2.5" ry="2.5" style="stroke:#000000;stroke-width:1.5;" width="123" x="616" y="478"/><text fill="#000000" font-family="sans-serif" font-size="14" font-weight="bold" lengthAdjust="spacing" textLength="107.5225" x="623.7388" y="492.9951">AdminNavBar</text></g><!--cluster ManageUsers--><g class="cluster" data-entity="ManageUsers" data-source-line="61" data-uid="ent0037" id="cluster_ManageUsers"><rect fill="none" height="99" rx="2.5" ry="2.5" style="stroke:#000000;stroke-width:1.5;" width="122" x="763" y="478"/><text fill="#000000" font-family="sans-serif" font-size="14" font-weight="bold" lengthAdjust="spacing" textLength="106.7432" x="770.6284" y="492.9951">ManageUsers</text></g><!--cluster analist--><g class="cluster" data-entity="analist" data-source-line="64" data-uid="ent0038" id="cluster_analist"><path d="M935.5,435 L989.9844,435 A3.75,3.75 0 0 1 992.4844,437.5 L999.4844,457.2969 L2180.5,457.2969 A2.5,2.5 0 0 1 2183,459.7969 L2183,598.5 A2.5,2.5 0 0 1 2180.5,601 L935.5,601 A2.5,2.5 0 0 1 933,598.5 L933,437.5 A2.5,2.5 0 0 1 935.5,435" fill="none" style="stroke:#000000;stroke-width:1.5;"/><line style="stroke:#000000;stroke-width:1.5;" x1="933" x2="999.4844" y1="457.2969" y2="457.2969"/><text fill="#000000" font-family="sans-serif" font-size="14" font-weight="bold" lengthAdjust="spacing" textLength="53.4844" x="937" y="449.9951">analist</text></g><!--cluster AnalistNavBar--><g class="cluster" data-entity="AnalistNavBar" data-source-line="65" data-uid="ent0040" id="cluster_AnalistNavBar"><rect fill="none" height="99" rx="2.5" ry="2.5" style="stroke:#000000;stroke-width:1.5;" width="128" x="957" y="478"/><text fill="#000000" font-family="sans-serif" font-size="14" font-weight="bold" lengthAdjust="spacing" textLength="112.1846" x="964.9077" y="492.9951">AnalistNavBar</text></g><!--cluster ConfigureShocks--><g class="cluster" data-entity="ConfigureShocks" data-source-line="66" data-uid="ent0042" id="cluster_ConfigureShocks"><rect fill="none" height="99" rx="2.5" ry="2.5" style="stroke:#000000;stroke-width:1.5;" width="148" x="1109" y="478"/><text fill="#000000" font-family="sans-serif" font-size="14" font-weight="bold" lengthAdjust="spacing" textLength="132.7471" x="1116.6265" y="492.9951">ConfigureShocks</text></g><!--cluster DetalleCalculo--><g class="cluster" data-entity="DetalleCalculo" data-source-line="67" data-uid="ent0044" id="cluster_DetalleCalculo"><rect fill="none" height="99" rx="2.5" ry="2.5" style="stroke:#000000;stroke-width:1.5;" width="129" x="1281" y="478"/><text fill="#000000" font-family="sans-serif" font-size="14" font-weight="bold" lengthAdjust="spacing" textLength="113.5518" x="1288.7241" y="492.9951">DetalleCalculo</text></g><!--cluster FileUploadCard--><g class="cluster" data-entity="FileUploadCard" data-source-line="68" data-uid="ent0046" id="cluster_FileUploadCard"><rect fill="none" height="99" rx="2.5" ry="2.5" style="stroke:#000000;stroke-width:1.5;" width="136" x="1434" y="478"/><text fill="#000000" font-family="sans-serif" font-size="14" font-weight="bold" lengthAdjust="spacing" textLength="120.5791" x="1441.7104" y="492.9951">FileUploadCard</text></g><!--cluster MisCalculos--><g class="cluster" data-entity="MisCalculos" data-source-line="69" data-uid="ent0048" id="cluster_MisCalculos"><rect fill="none" height="99" rx="2.5" ry="2.5" style="stroke:#000000;stroke-width:1.5;" width="108" x="1594" y="478"/><text fill="#000000" font-family="sans-serif" font-size="14" font-weight="bold" lengthAdjust="spacing" textLength="92.5996" x="1601.7002" y="492.9951">MisCalculos</text></g><!--cluster ReviewReports--><g class="cluster" data-entity="ReviewReports" data-source-line="70" data-uid="ent0050" id="cluster_ReviewReports"><rect fill="none" height="99" rx="2.5" ry="2.5" style="stroke:#000000;stroke-width:1.5;" width="134" x="1726" y="478"/><text fill="#000000" font-family="sans-serif" font-size="14" font-weight="bold" lengthAdjust="spacing" textLength="118.4736" x="1733.7632" y="492.9951">ReviewReports</text></g><!--cluster ScenarioCreator--><g class="cluster" data-entity="ScenarioCreator" data-source-line="71" data-uid="ent0052" id="cluster_ScenarioCreator"><rect fill="none" height="99" rx="2.5" ry="2.5" style="stroke:#000000;stroke-width:1.5;" width="143" x="1884" y="478"/><text fill="#000000" font-family="sans-serif" font-size="14" font-weight="bold" lengthAdjust="spacing" textLength="127.9482" x="1891.5259" y="492.9951">ScenarioCreator</text></g><!--cluster UploadFiles--><g class="cluster" data-entity="UploadFiles" data-source-line="72" data-uid="ent0054" id="cluster_UploadFiles"><rect fill="none" height="99" rx="2.5" ry="2.5" style="stroke:#000000;stroke-width:1.5;" width="108" x="2051" y="478"/><text fill="#000000" font-family="sans-serif" font-size="14" font-weight="bold" lengthAdjust="spacing" textLength="92.2646" x="2058.8677" y="492.9951">UploadFiles</text></g><!--cluster regulator--><g class="cluster" data-entity="regulator" data-source-line="75" data-uid="ent0055" id="cluster_regulator"><path d="M2209.5,435 L2284.3486,435 A3.75,3.75 0 0 1 2286.8486,437.5 L2293.8486,457.2969 L2848.5,457.2969 A2.5,2.5 0 0 1 2851,459.7969 L2851,598.5 A2.5,2.5 0 0 1 2848.5,601 L2209.5,601 A2.5,2.5 0 0 1 2207,598.5 L2207,437.5 A2.5,2.5 0 0 1 2209.5,435" fill="none" style="stroke:#000000;stroke-width:1.5;"/><line style="stroke:#000000;stroke-width:1.5;" x1="2207" x2="2293.8486" y1="457.2969" y2="457.2969"/><text fill="#000000" font-family="sans-serif" font-size="14" font-weight="bold" lengthAdjust="spacing" textLength="73.8486" x="2211" y="449.9951">regulator</text></g><!--cluster RegulatorBatchDetail--><g class="cluster" data-entity="RegulatorBatchDetail" data-source-line="76" data-uid="ent0057" id="cluster_RegulatorBatchDetail"><rect fill="none" height="99" rx="2.5" ry="2.5" style="stroke:#000000;stroke-width:1.5;" width="185" x="2231" y="478"/><text fill="#000000" font-family="sans-serif" font-size="14" font-weight="bold" lengthAdjust="spacing" textLength="169.6543" x="2238.6729" y="492.9951">RegulatorBatchDetail</text></g><!--cluster RegulatorNavBar--><g class="cluster" data-entity="RegulatorNavBar" data-source-line="77" data-uid="ent0059" id="cluster_RegulatorNavBar"><rect fill="none" height="99" rx="2.5" ry="2.5" style="stroke:#000000;stroke-width:1.5;" width="151" x="2440" y="478"/><text fill="#000000" font-family="sans-serif" font-size="14" font-weight="bold" lengthAdjust="spacing" textLength="135.0371" x="2447.9814" y="492.9951">RegulatorNavBar</text></g><!--cluster RegulatorReviewReports--><g class="cluster" data-entity="RegulatorReviewReports" data-source-line="78" data-uid="ent0061" id="cluster_RegulatorReviewReports"><rect fill="none" height="99" rx="2.5" ry="2.5" style="stroke:#000000;stroke-width:1.5;" width="212" x="2615" y="478"/><text fill="#000000" font-family="sans-serif" font-size="14" font-weight="bold" lengthAdjust="spacing" textLength="196.1982" x="2622.9009" y="492.9951">RegulatorReviewReports</text></g><!--cluster HomePage--><g class="cluster" data-entity="HomePage" data-source-line="82" data-uid="ent0063" id="cluster_HomePage"><rect fill="none" height="99" rx="2.5" ry="2.5" style="stroke:#000000;stroke-width:1.5;" width="100" x="2875" y="478"/><text fill="#000000" font-family="sans-serif" font-size="14" font-weight="bold" lengthAdjust="spacing" textLength="84.6426" x="2882.6787" y="492.9951">HomePage</text></g><!--cluster LoginPage--><g class="cluster" data-entity="LoginPage" data-source-line="83" data-uid="ent0065" id="cluster_LoginPage"><rect fill="none" height="99" rx="2.5" ry="2.5" style="stroke:#000000;stroke-width:1.5;" width="98" x="2999" y="478"/><text fill="#000000" font-family="sans-serif" font-size="14" font-weight="bold" lengthAdjust="spacing" textLength="82.5508" x="3006.7246" y="492.9951">LoginPage</text></g><!--cluster ChangePassword--><g class="cluster" data-entity="ChangePassword" data-source-line="84" data-uid="ent0067" id="cluster_ChangePassword"><rect fill="none" height="99" rx="2.5" ry="2.5" style="stroke:#000000;stroke-width:1.5;" width="151" x="3121" y="478"/><text fill="#000000" font-family="sans-serif" font-size="14" font-weight="bold" lengthAdjust="spacing" textLength="135.0234" x="3128.9883" y="492.9951">ChangePassword</text></g><!--cluster App--><g class="cluster" data-entity="App" data-source-line="87" data-uid="ent0069" id="cluster_App"><rect fill="none" height="99" rx="2.5" ry="2.5" style="stroke:#000000;stroke-width:1.5;" width="90" x="3320" y="478"/><text fill="#000000" font-family="sans-serif" font-size="14" font-weight="bold" lengthAdjust="spacing" textLength="30.8779" x="3349.561" y="492.9951">App</text></g><!--cluster main--><g class="cluster" data-entity="main" data-source-line="88" data-uid="ent0071" id="cluster_main"><rect fill="none" height="99" rx="2.5" ry="2.5" style="stroke:#000000;stroke-width:1.5;" width="76" x="3434" y="478"/><text fill="#000000" font-family="sans-serif" font-size="14" font-weight="bold" lengthAdjust="spacing" textLength="38.8008" x="3452.5996" y="492.9951">main</text></g><!--cluster routes--><g class="cluster" data-entity="routes" data-source-line="89" data-uid="ent0073" id="cluster_routes"><rect fill="none" height="99" rx="2.5" ry="2.5" style="stroke:#000000;stroke-width:1.5;" width="76" x="3534" y="478"/><text fill="#000000" font-family="sans-serif" font-size="14" font-weight="bold" lengthAdjust="spacing" textLength="51.0098" x="3546.4951" y="492.9951">routes</text></g><!--class venv/--><g class="entity" data-entity="venv." data-source-line="38" data-uid="ent0017" id="entity_venv."><rect fill="#F1F1F1" height="56.2656" rx="2.5" ry="2.5" style="stroke:#181818;stroke-width:0.5;" width="77.5176" x="2211.24" y="87.87"/><ellipse cx="2226.24" cy="108.0028" fill="#ADD1B2" rx="11" ry="11" style="stroke:#181818;stroke-width:1;"/><path d="M2229.2088,113.6434 Q2228.6306,113.9403 2227.99,114.0809 Q2227.3494,114.2372 2226.6463,114.2372 Q2224.1463,114.2372 2222.8181,112.5966 Q2221.5056,110.9403 2221.5056,107.8153 Q2221.5056,104.6903 2222.8181,103.0341 Q2224.1463,101.3778 2226.6463,101.3778 Q2227.3494,101.3778 2227.99,101.5341 Q2228.6463,101.6903 2229.2088,101.9872 L2229.2088,104.7059 Q2228.5838,104.1278 2227.99,103.8622 Q2227.3963,103.5809 2226.7713,103.5809 Q2225.4275,103.5809 2224.74,104.6591 Q2224.0525,105.7216 2224.0525,107.8153 Q2224.0525,109.9091 2224.74,110.9872 Q2225.4275,112.0497 2226.7713,112.0497 Q2227.3963,112.0497 2227.99,111.7841 Q2228.5838,111.5028 2229.2088,110.9247 L2229.2088,113.6434 Z " fill="#000000"/><text fill="#000000" font-family="sans-serif" font-size="12" font-style="italic" lengthAdjust="spacing" textLength="49.5176" x="2238.24" y="104.0087">&#171;folder&#187;</text><text fill="#000000" font-family="sans-serif" font-size="14" lengthAdjust="spacing" textLength="38.7734" x="2243.6121" y="119.8339">venv/</text><line style="stroke:#181818;stroke-width:0.5;" x1="2212.24" x2="2287.7576" y1="128.1356" y2="128.1356"/><line style="stroke:#181818;stroke-width:0.5;" x1="2212.24" x2="2287.7576" y1="136.1356" y2="136.1356"/></g><!--class env--><g class="entity" data-entity="env" data-source-line="39" data-uid="ent0018" id="entity_env"><rect fill="#F1F1F1" height="48" rx="2.5" ry="2.5" style="stroke:#181818;stroke-width:0.5;" width="57.7715" x="2324.11" y="92"/><ellipse cx="2339.11" cy="108" fill="#ADD1B2" rx="11" ry="11" style="stroke:#181818;stroke-width:1;"/><path d="M2342.0788,113.6406 Q2341.5006,113.9375 2340.86,114.0781 Q2340.2194,114.2344 2339.5163,114.2344 Q2337.0163,114.2344 2335.6881,112.5938 Q2334.3756,110.9375 2334.3756,107.8125 Q2334.3756,104.6875 2335.6881,103.0313 Q2337.0163,101.375 2339.5163,101.375 Q2340.2194,101.375 2340.86,101.5313 Q2341.5163,101.6875 2342.0788,101.9844 L2342.0788,104.7031 Q2341.4538,104.125 2340.86,103.8594 Q2340.2663,103.5781 2339.6413,103.5781 Q2338.2975,103.5781 2337.61,104.6563 Q2336.9225,105.7188 2336.9225,107.8125 Q2336.9225,109.9063 2337.61,110.9844 Q2338.2975,112.0469 2339.6413,112.0469 Q2340.2663,112.0469 2340.86,111.7813 Q2341.4538,111.5 2342.0788,110.9219 L2342.0788,113.6406 Z " fill="#000000"/><text fill="#000000" font-family="sans-serif" font-size="14" lengthAdjust="spacing" textLength="25.7715" x="2353.11" y="112.8467">env</text><line style="stroke:#181818;stroke-width:0.5;" x1="2325.11" x2="2380.8815" y1="124" y2="124"/><line style="stroke:#181818;stroke-width:0.5;" x1="2325.11" x2="2380.8815" y1="132" y2="132"/></g><!--entity authentication--><g class="entity" data-entity="authentication" data-source-line="5" data-uid="ent0003" id="entity_authentication"><path d="M2419.61,88.85 L2460.61,88.85 A3.75,3.75 0 0 1 2463.11,91.35 L2470.11,109.85 L2546.3834,109.85 A2.5,2.5 0 0 1 2548.8834,112.35 L2548.8834,140.6469 A2.5,2.5 0 0 1 2546.3834,143.1469 L2419.61,143.1469 A2.5,2.5 0 0 1 2417.11,140.6469 L2417.11,91.35 A2.5,2.5 0 0 1 2419.61,88.85" fill="#F1F1F1" style="stroke:#181818;stroke-width:0.5;"/><line style="stroke:#181818;stroke-width:0.5;" x1="2417.11" x2="2470.11" y1="109.85" y2="109.85"/><text fill="#000000" font-family="sans-serif" font-size="14" lengthAdjust="spacing" textLength="101.7734" x="2427.11" y="129.8451">authentication</text></g><!--entity backend--><g class="entity" data-entity="backend" data-source-line="8" data-uid="ent0004" id="entity_backend"><path d="M2586.68,88.85 L2627.68,88.85 A3.75,3.75 0 0 1 2630.18,91.35 L2637.18,109.85 L2671.3236,109.85 A2.5,2.5 0 0 1 2673.8236,112.35 L2673.8236,140.6469 A2.5,2.5 0 0 1 2671.3236,143.1469 L2586.68,143.1469 A2.5,2.5 0 0 1 2584.18,140.6469 L2584.18,91.35 A2.5,2.5 0 0 1 2586.68,88.85" fill="#F1F1F1" style="stroke:#181818;stroke-width:0.5;"/><line style="stroke:#181818;stroke-width:0.5;" x1="2584.18" x2="2637.18" y1="109.85" y2="109.85"/><text fill="#000000" font-family="sans-serif" font-size="14" lengthAdjust="spacing" textLength="59.6436" x="2594.18" y="129.8451">backend</text></g><!--entity calculations--><g class="entity" data-entity="calculations" data-source-line="11" data-uid="ent0005" id="entity_calculations"><path d="M2710.84,88.85 L2751.84,88.85 A3.75,3.75 0 0 1 2754.34,91.35 L2761.34,109.85 L2819.1564,109.85 A2.5,2.5 0 0 1 2821.6564,112.35 L2821.6564,140.6469 A2.5,2.5 0 0 1 2819.1564,143.1469 L2710.84,143.1469 A2.5,2.5 0 0 1 2708.34,140.6469 L2708.34,91.35 A2.5,2.5 0 0 1 2710.84,88.85" fill="#F1F1F1" style="stroke:#181818;stroke-width:0.5;"/><line style="stroke:#181818;stroke-width:0.5;" x1="2708.34" x2="2761.34" y1="109.85" y2="109.85"/><text fill="#000000" font-family="sans-serif" font-size="14" lengthAdjust="spacing" textLength="83.3164" x="2718.34" y="129.8451">calculations</text></g><!--entity dist--><g class="entity" data-entity="dist" data-source-line="14" data-uid="ent0006" id="entity_dist"><path d="M2859.5,88.85 L2900.5,88.85 A3.75,3.75 0 0 1 2903,91.35 L2910,109.85 L2924.5,109.85 A2.5,2.5 0 0 1 2927,112.35 L2927,140.6469 A2.5,2.5 0 0 1 2924.5,143.1469 L2859.5,143.1469 A2.5,2.5 0 0 1 2857,140.6469 L2857,91.35 A2.5,2.5 0 0 1 2859.5,88.85" fill="#F1F1F1" style="stroke:#181818;stroke-width:0.5;"/><line style="stroke:#181818;stroke-width:0.5;" x1="2857" x2="2910" y1="109.85" y2="109.85"/><text fill="#000000" font-family="sans-serif" font-size="14" lengthAdjust="spacing" textLength="25.5596" x="2867" y="129.8451">dist</text></g><!--entity insumos--><g class="entity" data-entity="insumos" data-source-line="17" data-uid="ent0007" id="entity_insumos"><path d="M2964.29,88.85 L3005.29,88.85 A3.75,3.75 0 0 1 3007.79,91.35 L3014.79,109.85 L3047.7168,109.85 A2.5,2.5 0 0 1 3050.2168,112.35 L3050.2168,140.6469 A2.5,2.5 0 0 1 3047.7168,143.1469 L2964.29,143.1469 A2.5,2.5 0 0 1 2961.79,140.6469 L2961.79,91.35 A2.5,2.5 0 0 1 2964.29,88.85" fill="#F1F1F1" style="stroke:#181818;stroke-width:0.5;"/><line style="stroke:#181818;stroke-width:0.5;" x1="2961.79" x2="3014.79" y1="109.85" y2="109.85"/><text fill="#000000" font-family="sans-serif" font-size="14" lengthAdjust="spacing" textLength="58.4268" x="2971.79" y="129.8451">insumos</text></g><!--entity media--><g class="entity" data-entity="media" data-source-line="20" data-uid="ent0008" id="entity_media"><path d="M3087.7,88.85 L3128.7,88.85 A3.75,3.75 0 0 1 3131.2,91.35 L3138.2,109.85 L3156.3064,109.85 A2.5,2.5 0 0 1 3158.8064,112.35 L3158.8064,140.6469 A2.5,2.5 0 0 1 3156.3064,143.1469 L3087.7,143.1469 A2.5,2.5 0 0 1 3085.2,140.6469 L3085.2,91.35 A2.5,2.5 0 0 1 3087.7,88.85" fill="#F1F1F1" style="stroke:#181818;stroke-width:0.5;"/><line style="stroke:#181818;stroke-width:0.5;" x1="3085.2" x2="3138.2" y1="109.85" y2="109.85"/><text fill="#000000" font-family="sans-serif" font-size="14" lengthAdjust="spacing" textLength="43.6064" x="3095.2" y="129.8451">media</text></g><!--entity regulator--><g class="entity" data-entity="regulator" data-source-line="23" data-uid="ent0009" id="entity_regulator"><path d="M3196.3,88.85 L3237.3,88.85 A3.75,3.75 0 0 1 3239.8,91.35 L3246.8,109.85 L3285.7082,109.85 A2.5,2.5 0 0 1 3288.2082,112.35 L3288.2082,140.6469 A2.5,2.5 0 0 1 3285.7082,143.1469 L3196.3,143.1469 A2.5,2.5 0 0 1 3193.8,140.6469 L3193.8,91.35 A2.5,2.5 0 0 1 3196.3,88.85" fill="#F1F1F1" style="stroke:#181818;stroke-width:0.5;"/><line style="stroke:#181818;stroke-width:0.5;" x1="3193.8" x2="3246.8" y1="109.85" y2="109.85"/><text fill="#000000" font-family="sans-serif" font-size="14" lengthAdjust="spacing" textLength="64.4082" x="3203.8" y="129.8451">regulator</text></g><!--entity reviews--><g class="entity" data-entity="reviews" data-source-line="26" data-uid="ent0010" id="entity_reviews"><path d="M3325.55,88.85 L3366.55,88.85 A3.75,3.75 0 0 1 3369.05,91.35 L3376.05,109.85 L3404.4514,109.85 A2.5,2.5 0 0 1 3406.9514,112.35 L3406.9514,140.6469 A2.5,2.5 0 0 1 3404.4514,143.1469 L3325.55,143.1469 A2.5,2.5 0 0 1 3323.05,140.6469 L3323.05,91.35 A2.5,2.5 0 0 1 3325.55,88.85" fill="#F1F1F1" style="stroke:#181818;stroke-width:0.5;"/><line style="stroke:#181818;stroke-width:0.5;" x1="3323.05" x2="3376.05" y1="109.85" y2="109.85"/><text fill="#000000" font-family="sans-serif" font-size="14" lengthAdjust="spacing" textLength="53.9014" x="3333.05" y="129.8451">reviews</text></g><!--entity storage--><g class="entity" data-entity="storage" data-source-line="29" data-uid="ent0011" id="entity_storage"><path d="M3444.91,88.85 L3485.91,88.85 A3.75,3.75 0 0 1 3488.41,91.35 L3495.41,109.85 L3523.0936,109.85 A2.5,2.5 0 0 1 3525.5936,112.35 L3525.5936,140.6469 A2.5,2.5 0 0 1 3523.0936,143.1469 L3444.91,143.1469 A2.5,2.5 0 0 1 3442.41,140.6469 L3442.41,91.35 A2.5,2.5 0 0 1 3444.91,88.85" fill="#F1F1F1" style="stroke:#181818;stroke-width:0.5;"/><line style="stroke:#181818;stroke-width:0.5;" x1="3442.41" x2="3495.41" y1="109.85" y2="109.85"/><text fill="#000000" font-family="sans-serif" font-size="14" lengthAdjust="spacing" textLength="53.1836" x="3452.41" y="129.8451">storage</text></g><!--entity users--><g class="entity" data-entity="users" data-source-line="32" data-uid="ent0012" id="entity_users"><path d="M3563.5,88.85 L3604.5,88.85 A3.75,3.75 0 0 1 3607,91.35 L3614,109.85 L3628.5,109.85 A2.5,2.5 0 0 1 3631,112.35 L3631,140.6469 A2.5,2.5 0 0 1 3628.5,143.1469 L3563.5,143.1469 A2.5,2.5 0 0 1 3561,140.6469 L3561,91.35 A2.5,2.5 0 0 1 3563.5,88.85" fill="#F1F1F1" style="stroke:#181818;stroke-width:0.5;"/><line style="stroke:#181818;stroke-width:0.5;" x1="3561" x2="3614" y1="109.85" y2="109.85"/><text fill="#000000" font-family="sans-serif" font-size="14" lengthAdjust="spacing" textLength="37.8301" x="3571" y="129.8451">users</text></g><!--class py--><g class="entity" data-entity="py" data-source-line="36" data-uid="ent0013" id="entity_py"><rect fill="#F1F1F1" height="48" rx="2.5" ry="2.5" style="stroke:#181818;stroke-width:0.5;" width="49.1719" x="1983.41" y="92"/><ellipse cx="1998.41" cy="108" fill="#ADD1B2" rx="11" ry="11" style="stroke:#181818;stroke-width:1;"/><path d="M2001.3788,113.6406 Q2000.8006,113.9375 2000.16,114.0781 Q1999.5194,114.2344 1998.8163,114.2344 Q1996.3163,114.2344 1994.9881,112.5938 Q1993.6756,110.9375 1993.6756,107.8125 Q1993.6756,104.6875 1994.9881,103.0313 Q1996.3163,101.375 1998.8163,101.375 Q1999.5194,101.375 2000.16,101.5313 Q2000.8163,101.6875 2001.3788,101.9844 L2001.3788,104.7031 Q2000.7538,104.125 2000.16,103.8594 Q1999.5663,103.5781 1998.9413,103.5781 Q1997.5975,103.5781 1996.91,104.6563 Q1996.2225,105.7188 1996.2225,107.8125 Q1996.2225,109.9063 1996.91,110.9844 Q1997.5975,112.0469 1998.9413,112.0469 Q1999.5663,112.0469 2000.16,111.7813 Q2000.7538,111.5 2001.3788,110.9219 L2001.3788,113.6406 Z " fill="#000000"/><text fill="#000000" font-family="sans-serif" font-size="14" lengthAdjust="spacing" textLength="17.1719" x="2012.41" y="112.8467">py</text><line style="stroke:#181818;stroke-width:0.5;" x1="1984.41" x2="2031.5819" y1="124" y2="124"/><line style="stroke:#181818;stroke-width:0.5;" x1="1984.41" x2="2031.5819" y1="132" y2="132"/></g><!--class txt--><g class="entity" data-entity="txt" data-source-line="37" data-uid="ent0015" id="entity_txt"><rect fill="#F1F1F1" height="48" rx="2.5" ry="2.5" style="stroke:#181818;stroke-width:0.5;" width="51.2637" x="2107.37" y="92"/><ellipse cx="2122.37" cy="108" fill="#ADD1B2" rx="11" ry="11" style="stroke:#181818;stroke-width:1;"/><path d="M2125.3388,113.6406 Q2124.7606,113.9375 2124.12,114.0781 Q2123.4794,114.2344 2122.7763,114.2344 Q2120.2763,114.2344 2118.9481,112.5938 Q2117.6356,110.9375 2117.6356,107.8125 Q2117.6356,104.6875 2118.9481,103.0313 Q2120.2763,101.375 2122.7763,101.375 Q2123.4794,101.375 2124.12,101.5313 Q2124.7763,101.6875 2125.3388,101.9844 L2125.3388,104.7031 Q2124.7138,104.125 2124.12,103.8594 Q2123.5263,103.5781 2122.9013,103.5781 Q2121.5575,103.5781 2120.87,104.6563 Q2120.1825,105.7188 2120.1825,107.8125 Q2120.1825,109.9063 2120.87,110.9844 Q2121.5575,112.0469 2122.9013,112.0469 Q2123.5263,112.0469 2124.12,111.7813 Q2124.7138,111.5 2125.3388,110.9219 L2125.3388,113.6406 Z " fill="#000000"/><text fill="#000000" font-family="sans-serif" font-size="14" lengthAdjust="spacing" textLength="19.2637" x="2136.37" y="112.8467">txt</text><line style="stroke:#181818;stroke-width:0.5;" x1="2108.37" x2="2157.6337" y1="124" y2="124"/><line style="stroke:#181818;stroke-width:0.5;" x1="2108.37" x2="2157.6337" y1="132" y2="132"/></g><!--class js--><g class="entity" data-entity="js" data-source-line="48" data-uid="ent0023" id="entity_js"><rect fill="#F1F1F1" height="48" rx="2.5" ry="2.5" style="stroke:#181818;stroke-width:0.5;" width="43.1836" x="102.41" y="513"/><ellipse cx="117.41" cy="529" fill="#ADD1B2" rx="11" ry="11" style="stroke:#181818;stroke-width:1;"/><path d="M120.3788,534.6406 Q119.8006,534.9375 119.16,535.0781 Q118.5194,535.2344 117.8163,535.2344 Q115.3163,535.2344 113.9881,533.5938 Q112.6756,531.9375 112.6756,528.8125 Q112.6756,525.6875 113.9881,524.0313 Q115.3163,522.375 117.8163,522.375 Q118.5194,522.375 119.16,522.5313 Q119.8163,522.6875 120.3788,522.9844 L120.3788,525.7031 Q119.7538,525.125 119.16,524.8594 Q118.5663,524.5781 117.9413,524.5781 Q116.5975,524.5781 115.91,525.6563 Q115.2225,526.7188 115.2225,528.8125 Q115.2225,530.9063 115.91,531.9844 Q116.5975,533.0469 117.9413,533.0469 Q118.5663,533.0469 119.16,532.7813 Q119.7538,532.5 120.3788,531.9219 L120.3788,534.6406 Z " fill="#000000"/><text fill="#000000" font-family="sans-serif" font-size="14" lengthAdjust="spacing" textLength="11.1836" x="131.41" y="533.8467">js</text><line style="stroke:#181818;stroke-width:0.5;" x1="103.41" x2="144.5936" y1="545" y2="545"/><line style="stroke:#181818;stroke-width:0.5;" x1="103.41" x2="144.5936" y1="553" y2="553"/></g><!--class js--><g class="entity" data-entity="js" data-source-line="49" data-uid="ent0025" id="entity_js"><rect fill="#F1F1F1" height="48" rx="2.5" ry="2.5" style="stroke:#181818;stroke-width:0.5;" width="43.1836" x="202.41" y="513"/><ellipse cx="217.41" cy="529" fill="#ADD1B2" rx="11" ry="11" style="stroke:#181818;stroke-width:1;"/><path d="M220.3788,534.6406 Q219.8006,534.9375 219.16,535.0781 Q218.5194,535.2344 217.8163,535.2344 Q215.3163,535.2344 213.9881,533.5938 Q212.6756,531.9375 212.6756,528.8125 Q212.6756,525.6875 213.9881,524.0313 Q215.3163,522.375 217.8163,522.375 Q218.5194,522.375 219.16,522.5313 Q219.8163,522.6875 220.3788,522.9844 L220.3788,525.7031 Q219.7538,525.125 219.16,524.8594 Q218.5663,524.5781 217.9413,524.5781 Q216.5975,524.5781 215.91,525.6563 Q215.2225,526.7188 215.2225,528.8125 Q215.2225,530.9063 215.91,531.9844 Q216.5975,533.0469 217.9413,533.0469 Q218.5663,533.0469 219.16,532.7813 Q219.7538,532.5 220.3788,531.9219 L220.3788,534.6406 Z " fill="#000000"/><text fill="#000000" font-family="sans-serif" font-size="14" lengthAdjust="spacing" textLength="11.1836" x="231.41" y="533.8467">js</text><line style="stroke:#181818;stroke-width:0.5;" x1="203.41" x2="244.5936" y1="545" y2="545"/><line style="stroke:#181818;stroke-width:0.5;" x1="203.41" x2="244.5936" y1="553" y2="553"/></g><!--class js--><g class="entity" data-entity="js" data-source-line="50" data-uid="ent0027" id="entity_js"><rect fill="#F1F1F1" height="48" rx="2.5" ry="2.5" style="stroke:#181818;stroke-width:0.5;" width="43.1836" x="302.41" y="513"/><ellipse cx="317.41" cy="529" fill="#ADD1B2" rx="11" ry="11" style="stroke:#181818;stroke-width:1;"/><path d="M320.3788,534.6406 Q319.8006,534.9375 319.16,535.0781 Q318.5194,535.2344 317.8163,535.2344 Q315.3163,535.2344 313.9881,533.5938 Q312.6756,531.9375 312.6756,528.8125 Q312.6756,525.6875 313.9881,524.0313 Q315.3163,522.375 317.8163,522.375 Q318.5194,522.375 319.16,522.5313 Q319.8163,522.6875 320.3788,522.9844 L320.3788,525.7031 Q319.7538,525.125 319.16,524.8594 Q318.5663,524.5781 317.9413,524.5781 Q316.5975,524.5781 315.91,525.6563 Q315.2225,526.7188 315.2225,528.8125 Q315.2225,530.9063 315.91,531.9844 Q316.5975,533.0469 317.9413,533.0469 Q318.5663,533.0469 319.16,532.7813 Q319.7538,532.5 320.3788,531.9219 L320.3788,534.6406 Z " fill="#000000"/><text fill="#000000" font-family="sans-serif" font-size="14" lengthAdjust="spacing" textLength="11.1836" x="331.41" y="533.8467">js</text><line style="stroke:#181818;stroke-width:0.5;" x1="303.41" x2="344.5936" y1="545" y2="545"/><line style="stroke:#181818;stroke-width:0.5;" x1="303.41" x2="344.5936" y1="553" y2="553"/></g><!--class css--><g class="entity" data-entity="css" data-source-line="54" data-uid="ent0030" id="entity_css"><rect fill="#F1F1F1" height="48" rx="2.5" ry="2.5" style="stroke:#181818;stroke-width:0.5;" width="54.2852" x="449.86" y="513"/><ellipse cx="464.86" cy="529" fill="#ADD1B2" rx="11" ry="11" style="stroke:#181818;stroke-width:1;"/><path d="M467.8288,534.6406 Q467.2506,534.9375 466.61,535.0781 Q465.9694,535.2344 465.2663,535.2344 Q462.7663,535.2344 461.4381,533.5938 Q460.1256,531.9375 460.1256,528.8125 Q460.1256,525.6875 461.4381,524.0313 Q462.7663,522.375 465.2663,522.375 Q465.9694,522.375 466.61,522.5313 Q467.2663,522.6875 467.8288,522.9844 L467.8288,525.7031 Q467.2038,525.125 466.61,524.8594 Q466.0163,524.5781 465.3913,524.5781 Q464.0475,524.5781 463.36,525.6563 Q462.6725,526.7188 462.6725,528.8125 Q462.6725,530.9063 463.36,531.9844 Q464.0475,533.0469 465.3913,533.0469 Q466.0163,533.0469 466.61,532.7813 Q467.2038,532.5 467.8288,531.9219 L467.8288,534.6406 Z " fill="#000000"/><text fill="#000000" font-family="sans-serif" font-size="14" lengthAdjust="spacing" textLength="22.2852" x="478.86" y="533.8467">css</text><line style="stroke:#181818;stroke-width:0.5;" x1="450.86" x2="503.1452" y1="545" y2="545"/><line style="stroke:#181818;stroke-width:0.5;" x1="450.86" x2="503.1452" y1="553" y2="553"/></g><!--class vue--><g class="entity" data-entity="vue" data-source-line="60" data-uid="ent0034" id="entity_vue"><rect fill="#F1F1F1" height="48" rx="2.5" ry="2.5" style="stroke:#181818;stroke-width:0.5;" width="57.7715" x="648.11" y="513"/><ellipse cx="663.11" cy="529" fill="#ADD1B2" rx="11" ry="11" style="stroke:#181818;stroke-width:1;"/><path d="M666.0788,534.6406 Q665.5006,534.9375 664.86,535.0781 Q664.2194,535.2344 663.5163,535.2344 Q661.0163,535.2344 659.6881,533.5938 Q658.3756,531.9375 658.3756,528.8125 Q658.3756,525.6875 659.6881,524.0313 Q661.0163,522.375 663.5163,522.375 Q664.2194,522.375 664.86,522.5313 Q665.5163,522.6875 666.0788,522.9844 L666.0788,525.7031 Q665.4538,525.125 664.86,524.8594 Q664.2663,524.5781 663.6413,524.5781 Q662.2975,524.5781 661.61,525.6563 Q660.9225,526.7188 660.9225,528.8125 Q660.9225,530.9063 661.61,531.9844 Q662.2975,533.0469 663.6413,533.0469 Q664.2663,533.0469 664.86,532.7813 Q665.4538,532.5 666.0788,531.9219 L666.0788,534.6406 Z " fill="#000000"/><text fill="#000000" font-family="sans-serif" font-size="14" lengthAdjust="spacing" textLength="25.7715" x="677.11" y="533.8467">vue</text><line style="stroke:#181818;stroke-width:0.5;" x1="649.11" x2="704.8815" y1="545" y2="545"/><line style="stroke:#181818;stroke-width:0.5;" x1="649.11" x2="704.8815" y1="553" y2="553"/></g><!--class vue--><g class="entity" data-entity="vue" data-source-line="61" data-uid="ent0036" id="entity_vue"><rect fill="#F1F1F1" height="48" rx="2.5" ry="2.5" style="stroke:#181818;stroke-width:0.5;" width="57.7715" x="795.11" y="513"/><ellipse cx="810.11" cy="529" fill="#ADD1B2" rx="11" ry="11" style="stroke:#181818;stroke-width:1;"/><path d="M813.0788,534.6406 Q812.5006,534.9375 811.86,535.0781 Q811.2194,535.2344 810.5163,535.2344 Q808.0163,535.2344 806.6881,533.5938 Q805.3756,531.9375 805.3756,528.8125 Q805.3756,525.6875 806.6881,524.0313 Q808.0163,522.375 810.5163,522.375 Q811.2194,522.375 811.86,522.5313 Q812.5163,522.6875 813.0788,522.9844 L813.0788,525.7031 Q812.4538,525.125 811.86,524.8594 Q811.2663,524.5781 810.6413,524.5781 Q809.2975,524.5781 808.61,525.6563 Q807.9225,526.7188 807.9225,528.8125 Q807.9225,530.9063 808.61,531.9844 Q809.2975,533.0469 810.6413,533.0469 Q811.2663,533.0469 811.86,532.7813 Q812.4538,532.5 813.0788,531.9219 L813.0788,534.6406 Z " fill="#000000"/><text fill="#000000" font-family="sans-serif" font-size="14" lengthAdjust="spacing" textLength="25.7715" x="824.11" y="533.8467">vue</text><line style="stroke:#181818;stroke-width:0.5;" x1="796.11" x2="851.8815" y1="545" y2="545"/><line style="stroke:#181818;stroke-width:0.5;" x1="796.11" x2="851.8815" y1="553" y2="553"/></g><!--class vue--><g class="entity" data-entity="vue" data-source-line="65" data-uid="ent0039" id="entity_vue"><rect fill="#F1F1F1" height="48" rx="2.5" ry="2.5" style="stroke:#181818;stroke-width:0.5;" width="57.7715" x="992.11" y="513"/><ellipse cx="1007.11" cy="529" fill="#ADD1B2" rx="11" ry="11" style="stroke:#181818;stroke-width:1;"/><path d="M1010.0788,534.6406 Q1009.5006,534.9375 1008.86,535.0781 Q1008.2194,535.2344 1007.5163,535.2344 Q1005.0163,535.2344 1003.6881,533.5938 Q1002.3756,531.9375 1002.3756,528.8125 Q1002.3756,525.6875 1003.6881,524.0313 Q1005.0163,522.375 1007.5163,522.375 Q1008.2194,522.375 1008.86,522.5313 Q1009.5163,522.6875 1010.0788,522.9844 L1010.0788,525.7031 Q1009.4538,525.125 1008.86,524.8594 Q1008.2663,524.5781 1007.6413,524.5781 Q1006.2975,524.5781 1005.61,525.6563 Q1004.9225,526.7188 1004.9225,528.8125 Q1004.9225,530.9063 1005.61,531.9844 Q1006.2975,533.0469 1007.6413,533.0469 Q1008.2663,533.0469 1008.86,532.7813 Q1009.4538,532.5 1010.0788,531.9219 L1010.0788,534.6406 Z " fill="#000000"/><text fill="#000000" font-family="sans-serif" font-size="14" lengthAdjust="spacing" textLength="25.7715" x="1021.11" y="533.8467">vue</text><line style="stroke:#181818;stroke-width:0.5;" x1="993.11" x2="1048.8815" y1="545" y2="545"/><line style="stroke:#181818;stroke-width:0.5;" x1="993.11" x2="1048.8815" y1="553" y2="553"/></g><!--class vue--><g class="entity" data-entity="vue" data-source-line="66" data-uid="ent0041" id="entity_vue"><rect fill="#F1F1F1" height="48" rx="2.5" ry="2.5" style="stroke:#181818;stroke-width:0.5;" width="57.7715" x="1154.11" y="513"/><ellipse cx="1169.11" cy="529" fill="#ADD1B2" rx="11" ry="11" style="stroke:#181818;stroke-width:1;"/><path d="M1172.0788,534.6406 Q1171.5006,534.9375 1170.86,535.0781 Q1170.2194,535.2344 1169.5163,535.2344 Q1167.0163,535.2344 1165.6881,533.5938 Q1164.3756,531.9375 1164.3756,528.8125 Q1164.3756,525.6875 1165.6881,524.0313 Q1167.0163,522.375 1169.5163,522.375 Q1170.2194,522.375 1170.86,522.5313 Q1171.5163,522.6875 1172.0788,522.9844 L1172.0788,525.7031 Q1171.4538,525.125 1170.86,524.8594 Q1170.2663,524.5781 1169.6413,524.5781 Q1168.2975,524.5781 1167.61,525.6563 Q1166.9225,526.7188 1166.9225,528.8125 Q1166.9225,530.9063 1167.61,531.9844 Q1168.2975,533.0469 1169.6413,533.0469 Q1170.2663,533.0469 1170.86,532.7813 Q1171.4538,532.5 1172.0788,531.9219 L1172.0788,534.6406 Z " fill="#000000"/><text fill="#000000" font-family="sans-serif" font-size="14" lengthAdjust="spacing" textLength="25.7715" x="1183.11" y="533.8467">vue</text><line style="stroke:#181818;stroke-width:0.5;" x1="1155.11" x2="1210.8815" y1="545" y2="545"/><line style="stroke:#181818;stroke-width:0.5;" x1="1155.11" x2="1210.8815" y1="553" y2="553"/></g><!--class vue--><g class="entity" data-entity="vue" data-source-line="67" data-uid="ent0043" id="entity_vue"><rect fill="#F1F1F1" height="48" rx="2.5" ry="2.5" style="stroke:#181818;stroke-width:0.5;" width="57.7715" x="1316.11" y="513"/><ellipse cx="1331.11" cy="529" fill="#ADD1B2" rx="11" ry="11" style="stroke:#181818;stroke-width:1;"/><path d="M1334.0788,534.6406 Q1333.5006,534.9375 1332.86,535.0781 Q1332.2194,535.2344 1331.5163,535.2344 Q1329.0163,535.2344 1327.6881,533.5938 Q1326.3756,531.9375 1326.3756,528.8125 Q1326.3756,525.6875 1327.6881,524.0313 Q1329.0163,522.375 1331.5163,522.375 Q1332.2194,522.375 1332.86,522.5313 Q1333.5163,522.6875 1334.0788,522.9844 L1334.0788,525.7031 Q1333.4538,525.125 1332.86,524.8594 Q1332.2663,524.5781 1331.6413,524.5781 Q1330.2975,524.5781 1329.61,525.6563 Q1328.9225,526.7188 1328.9225,528.8125 Q1328.9225,530.9063 1329.61,531.9844 Q1330.2975,533.0469 1331.6413,533.0469 Q1332.2663,533.0469 1332.86,532.7813 Q1333.4538,532.5 1334.0788,531.9219 L1334.0788,534.6406 Z " fill="#000000"/><text fill="#000000" font-family="sans-serif" font-size="14" lengthAdjust="spacing" textLength="25.7715" x="1345.11" y="533.8467">vue</text><line style="stroke:#181818;stroke-width:0.5;" x1="1317.11" x2="1372.8815" y1="545" y2="545"/><line style="stroke:#181818;stroke-width:0.5;" x1="1317.11" x2="1372.8815" y1="553" y2="553"/></g><!--class vue--><g class="entity" data-entity="vue" data-source-line="68" data-uid="ent0045" id="entity_vue"><rect fill="#F1F1F1" height="48" rx="2.5" ry="2.5" style="stroke:#181818;stroke-width:0.5;" width="57.7715" x="1473.11" y="513"/><ellipse cx="1488.11" cy="529" fill="#ADD1B2" rx="11" ry="11" style="stroke:#181818;stroke-width:1;"/><path d="M1491.0788,534.6406 Q1490.5006,534.9375 1489.86,535.0781 Q1489.2194,535.2344 1488.5163,535.2344 Q1486.0163,535.2344 1484.6881,533.5938 Q1483.3756,531.9375 1483.3756,528.8125 Q1483.3756,525.6875 1484.6881,524.0313 Q1486.0163,522.375 1488.5163,522.375 Q1489.2194,522.375 1489.86,522.5313 Q1490.5163,522.6875 1491.0788,522.9844 L1491.0788,525.7031 Q1490.4538,525.125 1489.86,524.8594 Q1489.2663,524.5781 1488.6413,524.5781 Q1487.2975,524.5781 1486.61,525.6563 Q1485.9225,526.7188 1485.9225,528.8125 Q1485.9225,530.9063 1486.61,531.9844 Q1487.2975,533.0469 1488.6413,533.0469 Q1489.2663,533.0469 1489.86,532.7813 Q1490.4538,532.5 1491.0788,531.9219 L1491.0788,534.6406 Z " fill="#000000"/><text fill="#000000" font-family="sans-serif" font-size="14" lengthAdjust="spacing" textLength="25.7715" x="1502.11" y="533.8467">vue</text><line style="stroke:#181818;stroke-width:0.5;" x1="1474.11" x2="1529.8815" y1="545" y2="545"/><line style="stroke:#181818;stroke-width:0.5;" x1="1474.11" x2="1529.8815" y1="553" y2="553"/></g><!--class vue--><g class="entity" data-entity="vue" data-source-line="69" data-uid="ent0047" id="entity_vue"><rect fill="#F1F1F1" height="48" rx="2.5" ry="2.5" style="stroke:#181818;stroke-width:0.5;" width="57.7715" x="1619.11" y="513"/><ellipse cx="1634.11" cy="529" fill="#ADD1B2" rx="11" ry="11" style="stroke:#181818;stroke-width:1;"/><path d="M1637.0788,534.6406 Q1636.5006,534.9375 1635.86,535.0781 Q1635.2194,535.2344 1634.5163,535.2344 Q1632.0163,535.2344 1630.6881,533.5938 Q1629.3756,531.9375 1629.3756,528.8125 Q1629.3756,525.6875 1630.6881,524.0313 Q1632.0163,522.375 1634.5163,522.375 Q1635.2194,522.375 1635.86,522.5313 Q1636.5163,522.6875 1637.0788,522.9844 L1637.0788,525.7031 Q1636.4538,525.125 1635.86,524.8594 Q1635.2663,524.5781 1634.6413,524.5781 Q1633.2975,524.5781 1632.61,525.6563 Q1631.9225,526.7188 1631.9225,528.8125 Q1631.9225,530.9063 1632.61,531.9844 Q1633.2975,533.0469 1634.6413,533.0469 Q1635.2663,533.0469 1635.86,532.7813 Q1636.4538,532.5 1637.0788,531.9219 L1637.0788,534.6406 Z " fill="#000000"/><text fill="#000000" font-family="sans-serif" font-size="14" lengthAdjust="spacing" textLength="25.7715" x="1648.11" y="533.8467">vue</text><line style="stroke:#181818;stroke-width:0.5;" x1="1620.11" x2="1675.8815" y1="545" y2="545"/><line style="stroke:#181818;stroke-width:0.5;" x1="1620.11" x2="1675.8815" y1="553" y2="553"/></g><!--class vue--><g class="entity" data-entity="vue" data-source-line="70" data-uid="ent0049" id="entity_vue"><rect fill="#F1F1F1" height="48" rx="2.5" ry="2.5" style="stroke:#181818;stroke-width:0.5;" width="57.7715" x="1764.11" y="513"/><ellipse cx="1779.11" cy="529" fill="#ADD1B2" rx="11" ry="11" style="stroke:#181818;stroke-width:1;"/><path d="M1782.0788,534.6406 Q1781.5006,534.9375 1780.86,535.0781 Q1780.2194,535.2344 1779.5163,535.2344 Q1777.0163,535.2344 1775.6881,533.5938 Q1774.3756,531.9375 1774.3756,528.8125 Q1774.3756,525.6875 1775.6881,524.0313 Q1777.0163,522.375 1779.5163,522.375 Q1780.2194,522.375 1780.86,522.5313 Q1781.5163,522.6875 1782.0788,522.9844 L1782.0788,525.7031 Q1781.4538,525.125 1780.86,524.8594 Q1780.2663,524.5781 1779.6413,524.5781 Q1778.2975,524.5781 1777.61,525.6563 Q1776.9225,526.7188 1776.9225,528.8125 Q1776.9225,530.9063 1777.61,531.9844 Q1778.2975,533.0469 1779.6413,533.0469 Q1780.2663,533.0469 1780.86,532.7813 Q1781.4538,532.5 1782.0788,531.9219 L1782.0788,534.6406 Z " fill="#000000"/><text fill="#000000" font-family="sans-serif" font-size="14" lengthAdjust="spacing" textLength="25.7715" x="1793.11" y="533.8467">vue</text><line style="stroke:#181818;stroke-width:0.5;" x1="1765.11" x2="1820.8815" y1="545" y2="545"/><line style="stroke:#181818;stroke-width:0.5;" x1="1765.11" x2="1820.8815" y1="553" y2="553"/></g><!--class vue--><g class="entity" data-entity="vue" data-source-line="71" data-uid="ent0051" id="entity_vue"><rect fill="#F1F1F1" height="48" rx="2.5" ry="2.5" style="stroke:#181818;stroke-width:0.5;" width="57.7715" x="1926.11" y="513"/><ellipse cx="1941.11" cy="529" fill="#ADD1B2" rx="11" ry="11" style="stroke:#181818;stroke-width:1;"/><path d="M1944.0788,534.6406 Q1943.5006,534.9375 1942.86,535.0781 Q1942.2194,535.2344 1941.5163,535.2344 Q1939.0163,535.2344 1937.6881,533.5938 Q1936.3756,531.9375 1936.3756,528.8125 Q1936.3756,525.6875 1937.6881,524.0313 Q1939.0163,522.375 1941.5163,522.375 Q1942.2194,522.375 1942.86,522.5313 Q1943.5163,522.6875 1944.0788,522.9844 L1944.0788,525.7031 Q1943.4538,525.125 1942.86,524.8594 Q1942.2663,524.5781 1941.6413,524.5781 Q1940.2975,524.5781 1939.61,525.6563 Q1938.9225,526.7188 1938.9225,528.8125 Q1938.9225,530.9063 1939.61,531.9844 Q1940.2975,533.0469 1941.6413,533.0469 Q1942.2663,533.0469 1942.86,532.7813 Q1943.4538,532.5 1944.0788,531.9219 L1944.0788,534.6406 Z " fill="#000000"/><text fill="#000000" font-family="sans-serif" font-size="14" lengthAdjust="spacing" textLength="25.7715" x="1955.11" y="533.8467">vue</text><line style="stroke:#181818;stroke-width:0.5;" x1="1927.11" x2="1982.8815" y1="545" y2="545"/><line style="stroke:#181818;stroke-width:0.5;" x1="1927.11" x2="1982.8815" y1="553" y2="553"/></g><!--class vue--><g class="entity" data-entity="vue" data-source-line="72" data-uid="ent0053" id="entity_vue"><rect fill="#F1F1F1" height="48" rx="2.5" ry="2.5" style="stroke:#181818;stroke-width:0.5;" width="57.7715" x="2076.11" y="513"/><ellipse cx="2091.11" cy="529" fill="#ADD1B2" rx="11" ry="11" style="stroke:#181818;stroke-width:1;"/><path d="M2094.0788,534.6406 Q2093.5006,534.9375 2092.86,535.0781 Q2092.2194,535.2344 2091.5163,535.2344 Q2089.0163,535.2344 2087.6881,533.5938 Q2086.3756,531.9375 2086.3756,528.8125 Q2086.3756,525.6875 2087.6881,524.0313 Q2089.0163,522.375 2091.5163,522.375 Q2092.2194,522.375 2092.86,522.5313 Q2093.5163,522.6875 2094.0788,522.9844 L2094.0788,525.7031 Q2093.4538,525.125 2092.86,524.8594 Q2092.2663,524.5781 2091.6413,524.5781 Q2090.2975,524.5781 2089.61,525.6563 Q2088.9225,526.7188 2088.9225,528.8125 Q2088.9225,530.9063 2089.61,531.9844 Q2090.2975,533.0469 2091.6413,533.0469 Q2092.2663,533.0469 2092.86,532.7813 Q2093.4538,532.5 2094.0788,531.9219 L2094.0788,534.6406 Z " fill="#000000"/><text fill="#000000" font-family="sans-serif" font-size="14" lengthAdjust="spacing" textLength="25.7715" x="2105.11" y="533.8467">vue</text><line style="stroke:#181818;stroke-width:0.5;" x1="2077.11" x2="2132.8815" y1="545" y2="545"/><line style="stroke:#181818;stroke-width:0.5;" x1="2077.11" x2="2132.8815" y1="553" y2="553"/></g><!--class vue--><g class="entity" data-entity="vue" data-source-line="76" data-uid="ent0056" id="entity_vue"><rect fill="#F1F1F1" height="48" rx="2.5" ry="2.5" style="stroke:#181818;stroke-width:0.5;" width="57.7715" x="2294.11" y="513"/><ellipse cx="2309.11" cy="529" fill="#ADD1B2" rx="11" ry="11" style="stroke:#181818;stroke-width:1;"/><path d="M2312.0788,534.6406 Q2311.5006,534.9375 2310.86,535.0781 Q2310.2194,535.2344 2309.5163,535.2344 Q2307.0163,535.2344 2305.6881,533.5938 Q2304.3756,531.9375 2304.3756,528.8125 Q2304.3756,525.6875 2305.6881,524.0313 Q2307.0163,522.375 2309.5163,522.375 Q2310.2194,522.375 2310.86,522.5313 Q2311.5163,522.6875 2312.0788,522.9844 L2312.0788,525.7031 Q2311.4538,525.125 2310.86,524.8594 Q2310.2663,524.5781 2309.6413,524.5781 Q2308.2975,524.5781 2307.61,525.6563 Q2306.9225,526.7188 2306.9225,528.8125 Q2306.9225,530.9063 2307.61,531.9844 Q2308.2975,533.0469 2309.6413,533.0469 Q2310.2663,533.0469 2310.86,532.7813 Q2311.4538,532.5 2312.0788,531.9219 L2312.0788,534.6406 Z " fill="#000000"/><text fill="#000000" font-family="sans-serif" font-size="14" lengthAdjust="spacing" textLength="25.7715" x="2323.11" y="533.8467">vue</text><line style="stroke:#181818;stroke-width:0.5;" x1="2295.11" x2="2350.8815" y1="545" y2="545"/><line style="stroke:#181818;stroke-width:0.5;" x1="2295.11" x2="2350.8815" y1="553" y2="553"/></g><!--class vue--><g class="entity" data-entity="vue" data-source-line="77" data-uid="ent0058" id="entity_vue"><rect fill="#F1F1F1" height="48" rx="2.5" ry="2.5" style="stroke:#181818;stroke-width:0.5;" width="57.7715" x="2486.11" y="513"/><ellipse cx="2501.11" cy="529" fill="#ADD1B2" rx="11" ry="11" style="stroke:#181818;stroke-width:1;"/><path d="M2504.0788,534.6406 Q2503.5006,534.9375 2502.86,535.0781 Q2502.2194,535.2344 2501.5163,535.2344 Q2499.0163,535.2344 2497.6881,533.5938 Q2496.3756,531.9375 2496.3756,528.8125 Q2496.3756,525.6875 2497.6881,524.0313 Q2499.0163,522.375 2501.5163,522.375 Q2502.2194,522.375 2502.86,522.5313 Q2503.5163,522.6875 2504.0788,522.9844 L2504.0788,525.7031 Q2503.4538,525.125 2502.86,524.8594 Q2502.2663,524.5781 2501.6413,524.5781 Q2500.2975,524.5781 2499.61,525.6563 Q2498.9225,526.7188 2498.9225,528.8125 Q2498.9225,530.9063 2499.61,531.9844 Q2500.2975,533.0469 2501.6413,533.0469 Q2502.2663,533.0469 2502.86,532.7813 Q2503.4538,532.5 2504.0788,531.9219 L2504.0788,534.6406 Z " fill="#000000"/><text fill="#000000" font-family="sans-serif" font-size="14" lengthAdjust="spacing" textLength="25.7715" x="2515.11" y="533.8467">vue</text><line style="stroke:#181818;stroke-width:0.5;" x1="2487.11" x2="2542.8815" y1="545" y2="545"/><line style="stroke:#181818;stroke-width:0.5;" x1="2487.11" x2="2542.8815" y1="553" y2="553"/></g><!--class vue--><g class="entity" data-entity="vue" data-source-line="78" data-uid="ent0060" id="entity_vue"><rect fill="#F1F1F1" height="48" rx="2.5" ry="2.5" style="stroke:#181818;stroke-width:0.5;" width="57.7715" x="2692.11" y="513"/><ellipse cx="2707.11" cy="529" fill="#ADD1B2" rx="11" ry="11" style="stroke:#181818;stroke-width:1;"/><path d="M2710.0788,534.6406 Q2709.5006,534.9375 2708.86,535.0781 Q2708.2194,535.2344 2707.5163,535.2344 Q2705.0163,535.2344 2703.6881,533.5938 Q2702.3756,531.9375 2702.3756,528.8125 Q2702.3756,525.6875 2703.6881,524.0313 Q2705.0163,522.375 2707.5163,522.375 Q2708.2194,522.375 2708.86,522.5313 Q2709.5163,522.6875 2710.0788,522.9844 L2710.0788,525.7031 Q2709.4538,525.125 2708.86,524.8594 Q2708.2663,524.5781 2707.6413,524.5781 Q2706.2975,524.5781 2705.61,525.6563 Q2704.9225,526.7188 2704.9225,528.8125 Q2704.9225,530.9063 2705.61,531.9844 Q2706.2975,533.0469 2707.6413,533.0469 Q2708.2663,533.0469 2708.86,532.7813 Q2709.4538,532.5 2710.0788,531.9219 L2710.0788,534.6406 Z " fill="#000000"/><text fill="#000000" font-family="sans-serif" font-size="14" lengthAdjust="spacing" textLength="25.7715" x="2721.11" y="533.8467">vue</text><line style="stroke:#181818;stroke-width:0.5;" x1="2693.11" x2="2748.8815" y1="545" y2="545"/><line style="stroke:#181818;stroke-width:0.5;" x1="2693.11" x2="2748.8815" y1="553" y2="553"/></g><!--class vue--><g class="entity" data-entity="vue" data-source-line="82" data-uid="ent0062" id="entity_vue"><rect fill="#F1F1F1" height="48" rx="2.5" ry="2.5" style="stroke:#181818;stroke-width:0.5;" width="57.7715" x="2896.11" y="513"/><ellipse cx="2911.11" cy="529" fill="#ADD1B2" rx="11" ry="11" style="stroke:#181818;stroke-width:1;"/><path d="M2914.0788,534.6406 Q2913.5006,534.9375 2912.86,535.0781 Q2912.2194,535.2344 2911.5163,535.2344 Q2909.0163,535.2344 2907.6881,533.5938 Q2906.3756,531.9375 2906.3756,528.8125 Q2906.3756,525.6875 2907.6881,524.0313 Q2909.0163,522.375 2911.5163,522.375 Q2912.2194,522.375 2912.86,522.5313 Q2913.5163,522.6875 2914.0788,522.9844 L2914.0788,525.7031 Q2913.4538,525.125 2912.86,524.8594 Q2912.2663,524.5781 2911.6413,524.5781 Q2910.2975,524.5781 2909.61,525.6563 Q2908.9225,526.7188 2908.9225,528.8125 Q2908.9225,530.9063 2909.61,531.9844 Q2910.2975,533.0469 2911.6413,533.0469 Q2912.2663,533.0469 2912.86,532.7813 Q2913.4538,532.5 2914.0788,531.9219 L2914.0788,534.6406 Z " fill="#000000"/><text fill="#000000" font-family="sans-serif" font-size="14" lengthAdjust="spacing" textLength="25.7715" x="2925.11" y="533.8467">vue</text><line style="stroke:#181818;stroke-width:0.5;" x1="2897.11" x2="2952.8815" y1="545" y2="545"/><line style="stroke:#181818;stroke-width:0.5;" x1="2897.11" x2="2952.8815" y1="553" y2="553"/></g><!--class vue--><g class="entity" data-entity="vue" data-source-line="83" data-uid="ent0064" id="entity_vue"><rect fill="#F1F1F1" height="48" rx="2.5" ry="2.5" style="stroke:#181818;stroke-width:0.5;" width="57.7715" x="3019.11" y="513"/><ellipse cx="3034.11" cy="529" fill="#ADD1B2" rx="11" ry="11" style="stroke:#181818;stroke-width:1;"/><path d="M3037.0788,534.6406 Q3036.5006,534.9375 3035.86,535.0781 Q3035.2194,535.2344 3034.5163,535.2344 Q3032.0163,535.2344 3030.6881,533.5938 Q3029.3756,531.9375 3029.3756,528.8125 Q3029.3756,525.6875 3030.6881,524.0313 Q3032.0163,522.375 3034.5163,522.375 Q3035.2194,522.375 3035.86,522.5313 Q3036.5163,522.6875 3037.0788,522.9844 L3037.0788,525.7031 Q3036.4538,525.125 3035.86,524.8594 Q3035.2663,524.5781 3034.6413,524.5781 Q3033.2975,524.5781 3032.61,525.6563 Q3031.9225,526.7188 3031.9225,528.8125 Q3031.9225,530.9063 3032.61,531.9844 Q3033.2975,533.0469 3034.6413,533.0469 Q3035.2663,533.0469 3035.86,532.7813 Q3036.4538,532.5 3037.0788,531.9219 L3037.0788,534.6406 Z " fill="#000000"/><text fill="#000000" font-family="sans-serif" font-size="14" lengthAdjust="spacing" textLength="25.7715" x="3048.11" y="533.8467">vue</text><line style="stroke:#181818;stroke-width:0.5;" x1="3020.11" x2="3075.8815" y1="545" y2="545"/><line style="stroke:#181818;stroke-width:0.5;" x1="3020.11" x2="3075.8815" y1="553" y2="553"/></g><!--class vue--><g class="entity" data-entity="vue" data-source-line="84" data-uid="ent0066" id="entity_vue"><rect fill="#F1F1F1" height="48" rx="2.5" ry="2.5" style="stroke:#181818;stroke-width:0.5;" width="57.7715" x="3167.11" y="513"/><ellipse cx="3182.11" cy="529" fill="#ADD1B2" rx="11" ry="11" style="stroke:#181818;stroke-width:1;"/><path d="M3185.0788,534.6406 Q3184.5006,534.9375 3183.86,535.0781 Q3183.2194,535.2344 3182.5163,535.2344 Q3180.0163,535.2344 3178.6881,533.5938 Q3177.3756,531.9375 3177.3756,528.8125 Q3177.3756,525.6875 3178.6881,524.0313 Q3180.0163,522.375 3182.5163,522.375 Q3183.2194,522.375 3183.86,522.5313 Q3184.5163,522.6875 3185.0788,522.9844 L3185.0788,525.7031 Q3184.4538,525.125 3183.86,524.8594 Q3183.2663,524.5781 3182.6413,524.5781 Q3181.2975,524.5781 3180.61,525.6563 Q3179.9225,526.7188 3179.9225,528.8125 Q3179.9225,530.9063 3180.61,531.9844 Q3181.2975,533.0469 3182.6413,533.0469 Q3183.2663,533.0469 3183.86,532.7813 Q3184.4538,532.5 3185.0788,531.9219 L3185.0788,534.6406 Z " fill="#000000"/><text fill="#000000" font-family="sans-serif" font-size="14" lengthAdjust="spacing" textLength="25.7715" x="3196.11" y="533.8467">vue</text><line style="stroke:#181818;stroke-width:0.5;" x1="3168.11" x2="3223.8815" y1="545" y2="545"/><line style="stroke:#181818;stroke-width:0.5;" x1="3168.11" x2="3223.8815" y1="553" y2="553"/></g><!--class vue--><g class="entity" data-entity="vue" data-source-line="87" data-uid="ent0068" id="entity_vue"><rect fill="#F1F1F1" height="48" rx="2.5" ry="2.5" style="stroke:#181818;stroke-width:0.5;" width="57.7715" x="3336.11" y="513"/><ellipse cx="3351.11" cy="529" fill="#ADD1B2" rx="11" ry="11" style="stroke:#181818;stroke-width:1;"/><path d="M3354.0788,534.6406 Q3353.5006,534.9375 3352.86,535.0781 Q3352.2194,535.2344 3351.5163,535.2344 Q3349.0163,535.2344 3347.6881,533.5938 Q3346.3756,531.9375 3346.3756,528.8125 Q3346.3756,525.6875 3347.6881,524.0313 Q3349.0163,522.375 3351.5163,522.375 Q3352.2194,522.375 3352.86,522.5313 Q3353.5163,522.6875 3354.0788,522.9844 L3354.0788,525.7031 Q3353.4538,525.125 3352.86,524.8594 Q3352.2663,524.5781 3351.6413,524.5781 Q3350.2975,524.5781 3349.61,525.6563 Q3348.9225,526.7188 3348.9225,528.8125 Q3348.9225,530.9063 3349.61,531.9844 Q3350.2975,533.0469 3351.6413,533.0469 Q3352.2663,533.0469 3352.86,532.7813 Q3353.4538,532.5 3354.0788,531.9219 L3354.0788,534.6406 Z " fill="#000000"/><text fill="#000000" font-family="sans-serif" font-size="14" lengthAdjust="spacing" textLength="25.7715" x="3365.11" y="533.8467">vue</text><line style="stroke:#181818;stroke-width:0.5;" x1="3337.11" x2="3392.8815" y1="545" y2="545"/><line style="stroke:#181818;stroke-width:0.5;" x1="3337.11" x2="3392.8815" y1="553" y2="553"/></g><!--class js--><g class="entity" data-entity="js" data-source-line="88" data-uid="ent0070" id="entity_js"><rect fill="#F1F1F1" height="48" rx="2.5" ry="2.5" style="stroke:#181818;stroke-width:0.5;" width="43.1836" x="3450.41" y="513"/><ellipse cx="3465.41" cy="529" fill="#ADD1B2" rx="11" ry="11" style="stroke:#181818;stroke-width:1;"/><path d="M3468.3788,534.6406 Q3467.8006,534.9375 3467.16,535.0781 Q3466.5194,535.2344 3465.8163,535.2344 Q3463.3163,535.2344 3461.9881,533.5938 Q3460.6756,531.9375 3460.6756,528.8125 Q3460.6756,525.6875 3461.9881,524.0313 Q3463.3163,522.375 3465.8163,522.375 Q3466.5194,522.375 3467.16,522.5313 Q3467.8163,522.6875 3468.3788,522.9844 L3468.3788,525.7031 Q3467.7538,525.125 3467.16,524.8594 Q3466.5663,524.5781 3465.9413,524.5781 Q3464.5975,524.5781 3463.91,525.6563 Q3463.2225,526.7188 3463.2225,528.8125 Q3463.2225,530.9063 3463.91,531.9844 Q3464.5975,533.0469 3465.9413,533.0469 Q3466.5663,533.0469 3467.16,532.7813 Q3467.7538,532.5 3468.3788,531.9219 L3468.3788,534.6406 Z " fill="#000000"/><text fill="#000000" font-family="sans-serif" font-size="14" lengthAdjust="spacing" textLength="11.1836" x="3479.41" y="533.8467">js</text><line style="stroke:#181818;stroke-width:0.5;" x1="3451.41" x2="3492.5936" y1="545" y2="545"/><line style="stroke:#181818;stroke-width:0.5;" x1="3451.41" x2="3492.5936" y1="553" y2="553"/></g><!--class js--><g class="entity" data-entity="js" data-source-line="89" data-uid="ent0072" id="entity_js"><rect fill="#F1F1F1" height="48" rx="2.5" ry="2.5" style="stroke:#181818;stroke-width:0.5;" width="43.1836" x="3550.41" y="513"/><ellipse cx="3565.41" cy="529" fill="#ADD1B2" rx="11" ry="11" style="stroke:#181818;stroke-width:1;"/><path d="M3568.3788,534.6406 Q3567.8006,534.9375 3567.16,535.0781 Q3566.5194,535.2344 3565.8163,535.2344 Q3563.3163,535.2344 3561.9881,533.5938 Q3560.6756,531.9375 3560.6756,528.8125 Q3560.6756,525.6875 3561.9881,524.0313 Q3563.3163,522.375 3565.8163,522.375 Q3566.5194,522.375 3567.16,522.5313 Q3567.8163,522.6875 3568.3788,522.9844 L3568.3788,525.7031 Q3567.7538,525.125 3567.16,524.8594 Q3566.5663,524.5781 3565.9413,524.5781 Q3564.5975,524.5781 3563.91,525.6563 Q3563.2225,526.7188 3563.2225,528.8125 Q3563.2225,530.9063 3563.91,531.9844 Q3564.5975,533.0469 3565.9413,533.0469 Q3566.5663,533.0469 3567.16,532.7813 Q3567.7538,532.5 3568.3788,531.9219 L3568.3788,534.6406 Z " fill="#000000"/><text fill="#000000" font-family="sans-serif" font-size="14" lengthAdjust="spacing" textLength="11.1836" x="3579.41" y="533.8467">js</text><line style="stroke:#181818;stroke-width:0.5;" x1="3551.41" x2="3592.5936" y1="545" y2="545"/><line style="stroke:#181818;stroke-width:0.5;" x1="3551.41" x2="3592.5936" y1="553" y2="553"/></g><!--link backend_irrbb to frontend_IRRBB--><g class="link" data-entity-1="backend_irrbb" data-entity-2="frontend_IRRBB" data-source-line="42" data-uid="lnk20" id="link_backend_irrbb_frontend_IRRBB"><path codeLine="42" d="M3666,188.027 C3666,189.272 3666,190.5288 3666,191.797 C3666,194.3334 3666,196.9156 3666,199.5405 C3666,204.7902 3666,210.2107 3666,215.7776 C3666,226.9113 3666,238.6305 3666,250.74 C3666,262.8495 3666,275.3493 3666,288.0441 C3666,291.2178 3666,294.4037 3666,297.5988 C3666,297.6986 3666,320.0954 3666,320.1952" fill="none" id="backend_irrbb-frontend_IRRBB" style="stroke:#181818;stroke-width:1;"/></g><!--SRC=[XLL1Zjim3Bpd5O8lUqhwWSK26nT55sYB8i6U2qPYOZQow4goiscH9_KL_LWbh-CuZXtxP736d255ocvFfW0BkIX0xc67Qt_KA2nA3sQdSJPhuYBPX1SqwWTPkzaaul5norgXVNeIVsOp8LeUb3v3uqc29pOzeX2dAtAJT88bGSjIr_dS15MHynCKCgxCUIfHZefWWcDn5ssndUHLX8SfHHSIXPS9LkdGZcHw4CzMPbIn4sY41c7Xtz_VGg4MXULZE5CMJSC3MsfmBjG99kHT5CVa4hFugoIBUJX6j_1llWDLQAeFNVaB591a5epq9sK-Ltmmyxb8jfQDZyZBQhLS9ftXwY7zyYuzil9szBh3Lz3Dn_5fBCRPNFnqII_wHknkmtMds_2fh-GSUdTFp0Ff0ncra6uaX-IyO1ExF5HKLqpbP0QrMhNdIFa6rHBieYenwUDVwtD-hMlguATRBGDwQ8ckrTv9T_HIDblQbHRN6Skz6-HyH0zQOrglDmzIFf76rq8pg1Ii6gwCN9DXM6LLRzyA2xP-cB6MQC0IfnRZDWzotar4EnFz6xyKUguQsXAyp68dI8_ORuXtcjroHcjjVJw8z3nrw4ISGB2UrCsT8Ix3UJtMdpd7x_7Aw6Hle2-y8pE2fLdueOGFdJjmzo0RO-UvAeeBrDvGPDerFDzGN0RxJVJq7m00]--></g></svg>